<svg width="354" height="324" viewBox="0 0 354 324" fill="none" xmlns="http://www.w3.org/2000/svg">
<rect x="18.4495" y="78.4057" width="317.101" height="245.594" rx="16" fill="#D2C3A5"/>
<path d="M314.548 137.146C335.603 124.782 348.86 109.834 352.781 94.0343C356.701 78.2344 351.125 62.2297 336.698 47.8754C322.272 33.521 299.586 21.4049 271.27 12.9315C242.955 4.45806 210.169 -0.0256405 176.714 0.000110255C143.258 0.025861 110.503 4.56001 82.2451 13.077C53.9873 21.5939 31.384 33.7449 17.0554 48.1214C2.72675 62.4979 -2.74044 78.5111 1.28756 94.3049C5.31556 110.099 18.6738 125.026 39.8138 137.357L177 84.1708L314.548 137.146Z" fill="#D2C3A5"/>
</svg>
